<svg xmlns="http://www.w3.org/2000/svg" width="50.04" height="40" viewBox="0 0 50.04 40">
  <title>アセット 1</title>
  <g id="レイヤー_2" data-name="レイヤー 2">
    <g id="レイヤー_1-2" data-name="レイヤー 1">
      <path d="M43.59,18.13c1.88,0,2.8-.16,4-1.51,1.51-1.62,2.3-3.78,2.4-7.14A12.47,12.47,0,0,0,47.85,2c-1.1-1.47-2.89-2-5-2H19.53V20.15c-.12,2.13-2.51,3-7.09,3C8.26,23.11,6,22.42,6,19V11.85H0v8a7.78,7.78,0,0,0,2,6c2,2.27,5.87,3.55,10.79,3.55,3.43,0,8.2-.54,10.86-3.45,1.29-1.4,1.83-2.33,1.83-5.46V6.34H41.6c1.16,0,2.09.7,2.09,2.92,0,2.92-1.67,2.92-2.07,2.92H29.78L42.12,29H49.9L41.65,18.09ZM11.17,37.37c0,1.44-.52,1.44-.84,1.44H8.54c-.48,0-.64-.1-.72-.19a3.45,3.45,0,0,1-.33-2h-1a4,4,0,0,0,.62,2.73,1.84,1.84,0,0,0,1.44.52h1.79a1.69,1.69,0,0,0,1.28-.52,3,3,0,0,0,.58-2V32.7h-1Zm8.29-2.64A2.23,2.23,0,0,0,19,33.2a1.82,1.82,0,0,0-1.42-.5H13.37v7.23h1V37h3a1.79,1.79,0,0,1,1,.23,1,1,0,0,1,.18.66v2h1v-2a2.09,2.09,0,0,0-.51-1.4A2.57,2.57,0,0,0,19.46,34.73Zm-2.12,1.2h-3V33.81h3.22a1,1,0,0,1,.7.17,1.75,1.75,0,0,1,.15.83C18.45,35.83,18.44,35.93,17.34,35.93Zm7.35-3.36h-.92V33H20.68v.89h3.09v.39H20.88v3.4H22.8A4.31,4.31,0,0,1,20.68,39v1a5.22,5.22,0,0,0,3.09-2v1.91h.92V38a5.16,5.16,0,0,0,3.08,2V39a4.24,4.24,0,0,1-2.11-1.3h1.92V34.3H24.69v-.39h3.16V33H24.69Zm-.92,4.27H21.69v-.39h2.08Zm0-1.19H21.69v-.43h2.08Zm3,1.19H24.69v-.39h2.07Zm0-1.62v.43H24.69v-.43Zm2.78-2.38H29v7.07h6.1V32.84H29.55Zm4.69,6.07H30v-2h4.23Zm0-3H30v-2h4.23Zm9.18-1.28v-.88H40.35V32.57h-.92v1.14H36.24v.88h2.25a8.12,8.12,0,0,1-2.25,3.54v1.19A9,9,0,0,0,39.43,35v3H38.2v.88h1.23v1h.92v-1h1.3V38h-1.3V35a8.94,8.94,0,0,0,3.15,4.36V38.13a8,8,0,0,1-2.25-3.54Z" style="fill: #eee"/>
    </g>
  </g>
</svg>
