<svg width="96" height="96" xmlns="http://www.w3.org/2000/svg" xmlns:xlink="http://www.w3.org/1999/xlink" overflow="hidden"><defs><clipPath id="clip0"><rect x="603" y="312" width="96" height="96"/></clipPath></defs><g clip-path="url(#clip0)" transform="translate(-603 -312)"><path d="M680.03 368.53C680.03 372.827 676.547 376.31 672.25 376.31 667.953 376.31 664.47 372.827 664.47 368.53 664.47 364.233 667.953 360.75 672.25 360.75 676.547 360.75 680.03 364.233 680.03 368.53Z" fill="#A4DAAA"/><path d="M638.54 368.53C638.54 372.827 635.057 376.31 630.76 376.31 626.463 376.31 622.98 372.827 622.98 368.53 622.98 364.233 626.463 360.75 630.76 360.75 635.057 360.75 638.54 364.233 638.54 368.53Z" fill="#A4DAAA"/><path d="M686.26 383.05C684.015 381.304 681.419 380.066 678.65 379.42 676.569 378.812 674.417 378.476 672.25 378.42 670.081 378.415 667.924 378.753 665.86 379.42 663.794 379.97 661.82 380.819 660 381.94L659.64 382.35C662.547 383.135 665.268 384.495 667.64 386.35 669.505 387.72 670.592 389.906 670.56 392.22L670.56 394 687.81 394 687.81 386.17C687.844 384.937 687.263 383.768 686.26 383.05Z" fill="#A4DAAA"/><path d="M632.48 392.22C632.482 389.967 633.518 387.84 635.29 386.45L635.4 386.35 635.53 386.26C637.93 384.552 640.587 383.235 643.4 382.36 643.2 382.15 643.01 381.93 642.83 381.71 641.056 380.679 639.143 379.908 637.15 379.42 635.072 378.813 632.924 378.477 630.76 378.42 628.587 378.414 626.427 378.752 624.36 379.42 621.63 380.173 619.054 381.402 616.75 383.05 615.78 383.797 615.205 384.946 615.19 386.17L615.19 394 632.48 394Z" fill="#A4DAAA"/><path d="M635.94 400 635.94 392.22C635.945 390.996 636.522 389.845 637.5 389.11 639.799 387.454 642.377 386.225 645.11 385.48 647.173 384.808 649.33 384.471 651.5 384.48 653.668 384.531 655.82 384.867 657.9 385.48 660.672 386.117 663.27 387.357 665.51 389.11 666.517 389.821 667.102 390.988 667.07 392.22L667.07 400Z" fill="#A4DAAA"/><path d="M659.28 374.58C659.28 378.877 655.797 382.36 651.5 382.36 647.203 382.36 643.72 378.877 643.72 374.58 643.72 370.283 647.203 366.8 651.5 366.8 655.797 366.8 659.28 370.283 659.28 374.58Z" fill="#A4DAAA"/><path d="M684 320 619.25 320C617.041 320 615.25 321.791 615.25 324L615.25 346C615.25 348.209 617.041 350 619.25 350L634 350 634 356 640.3 350 647.1 350 651 356 654.6 350 661.7 350 668 356 668 350 684 350C686.209 350 688 348.209 688 346L688 324C688 321.791 686.209 320 684 320ZM625.25 329 672 329 672 331 625.25 331ZM662 341 625.25 341 625.25 339 662 339ZM678 336 625.25 336 625.25 334 678 334Z" fill="#A4DAAA"/></g></svg>