<svg width="3490" height="694" xmlns="http://www.w3.org/2000/svg" xmlns:xlink="http://www.w3.org/1999/xlink" xml:space="preserve" overflow="hidden"><defs><clipPath id="clip0"><rect x="455" y="718" width="3490" height="694"/></clipPath><clipPath id="clip1"><rect x="757" y="796" width="605" height="484"/></clipPath><clipPath id="clip2"><rect x="757" y="796" width="605" height="484"/></clipPath><clipPath id="clip3"><rect x="757" y="796" width="605" height="484"/></clipPath></defs><g clip-path="url(#clip0)" transform="translate(-455 -718)"><rect x="455" y="1354" width="3490" height="34" fill="#A4DDAA"/><g clip-path="url(#clip1)"><g clip-path="url(#clip2)"><g clip-path="url(#clip3)"><path d="M525.928 218.745C548.611 218.745 559.711 216.814 574.19 200.526 592.409 180.98 601.94 154.919 603.147 114.379 604.385 82.3128 595.338 50.6903 577.327 24.1307 564.055 6.39463 542.458 0 517 0L235.636 0 235.636 243.117C234.188 268.816 205.352 279.313 150.093 279.313 99.6598 278.83 72.3921 270.505 72.3921 229.242L72.3921 142.974 0 142.974 0 239.497C-2.57002 265.956 6.1993 292.264 24.1307 311.889 48.2614 339.278 94.9543 354.721 154.316 354.721 195.7 354.721 253.252 348.206 285.345 313.096 300.91 296.204 307.425 284.983 307.425 247.219L307.425 76.4943 501.918 76.4943C515.914 76.4943 527.135 84.94 527.135 111.725 527.135 146.956 506.986 146.956 502.16 146.956L359.306 146.956 508.192 349.895 602.061 349.895 502.522 218.262ZM134.77 450.882C134.77 468.256 128.496 468.256 124.635 468.256L103.038 468.256C97.2467 468.256 95.3162 467.05 94.351 465.964 90.6374 458.5 89.2504 450.094 90.3694 441.833L78.3041 441.833C76.7486 453.355 79.4049 465.052 85.7846 474.771 90.3896 479.287 96.7309 481.577 103.159 481.045L124.756 481.045C130.563 481.25 136.18 478.968 140.199 474.771 145.338 467.822 147.821 459.261 147.197 450.641L147.197 394.537 135.132 394.537ZM234.792 419.029C235.285 412.402 233.308 405.826 229.242 400.57 224.669 396.18 218.423 393.981 212.109 394.537L161.314 394.537 161.314 481.769 173.379 481.769 173.379 446.418 209.575 446.418C213.781 446.145 217.976 447.11 221.64 449.193 223.278 451.509 224.047 454.329 223.812 457.156L223.812 481.287 235.878 481.287 235.878 457.156C235.972 450.96 233.781 444.948 229.724 440.265 233.931 434.034 235.733 426.488 234.792 419.029ZM209.213 433.508 173.017 433.508 173.017 407.929 211.867 407.929C214.839 407.54 217.851 408.271 220.313 409.98 221.724 413.121 222.345 416.559 222.123 419.995 222.606 432.301 222.485 433.508 209.213 433.508ZM297.893 392.968 286.793 392.968 286.793 398.156 249.511 398.156 249.511 408.895 286.793 408.895 286.793 413.6 251.924 413.6 251.924 454.622 275.09 454.622C268.322 462.339 259.422 467.881 249.511 470.549L249.511 482.614C264.457 479.363 277.708 470.786 286.793 458.483L286.793 481.528 297.893 481.528 297.893 458.483C306.903 470.812 320.127 479.4 335.055 482.614L335.055 470.549C325.196 467.973 316.332 462.511 309.597 454.864L332.762 454.864 332.762 413.841 297.893 413.841 297.893 409.136 336.02 409.136 336.02 398.156 297.893 398.156ZM286.793 444.487 261.697 444.487 261.697 439.782 286.793 439.782ZM286.793 430.13 261.697 430.13 261.697 424.942 286.793 424.942ZM322.989 444.487 297.893 444.487 297.893 439.782 322.869 439.782ZM322.989 424.942 322.989 430.13 297.893 430.13 297.893 424.942ZM356.531 396.226 349.895 396.226 349.895 481.528 423.494 481.528 423.494 396.226 356.531 396.226ZM413.117 469.463 361.96 469.463 361.96 445.332 412.997 445.332ZM413.117 433.267 361.96 433.267 361.96 409.136 412.997 409.136ZM523.877 417.823 523.877 407.205 486.837 407.205 486.837 392.968 475.737 392.968 475.737 406.723 437.248 406.723 437.248 417.34 464.395 417.34C459.243 433.709 449.882 448.438 437.248 460.052L437.248 474.409C455.083 461.357 468.511 443.173 475.737 422.287L475.737 458.483 460.896 458.483 460.896 469.101 475.737 469.101 475.737 481.166 486.837 481.166 486.837 469.101 502.522 469.101 502.522 458.483 486.837 458.483 486.837 422.287C493.805 443.307 507.074 461.674 524.843 474.892L524.843 460.052C512.156 448.482 502.785 433.738 497.696 417.34Z" fill="#FFFFFF" transform="matrix(1.00041 0 0 1 758 796.193)"/></g></g></g><text fill="#FFFFFF" font-family="Noto Sans JP,Noto Sans JP_MSFontService,sans-serif" font-weight="700" font-size="202" transform="matrix(1 0 0 1 1585.03 973)">東京<tspan font-size="202" x="423.958" y="0">建設プロジェクト</tspan><tspan font-size="202" x="0" y="269">マネジメント</tspan><tspan font-size="202" x="1230.63" y="269">オフィス</tspan></text></g></svg>