<svg width="2839" height="693" xmlns="http://www.w3.org/2000/svg" xmlns:xlink="http://www.w3.org/1999/xlink" xml:space="preserve" overflow="hidden"><defs><clipPath id="clip0"><rect x="593" y="735" width="2839" height="693"/></clipPath><clipPath id="clip1"><rect x="592" y="811" width="605" height="485"/></clipPath><clipPath id="clip2"><rect x="592" y="811" width="605" height="485"/></clipPath><clipPath id="clip3"><rect x="592" y="811" width="605" height="485"/></clipPath></defs><g clip-path="url(#clip0)" transform="translate(-593 -735)"><text fill="#FFFFFF" font-family="Noto Sans JP,Noto Sans JP_MSFontService,sans-serif" font-weight="700" font-size="202" transform="matrix(1 0 0 1 1349.1 990)">東京<tspan font-size="202" x="403.333" y="0">建設プロジェクト</tspan><tspan font-size="202" x="0" y="269">マネジメント</tspan><tspan font-size="202" x="1182.5" y="269">オフィス</tspan></text><g clip-path="url(#clip1)"><g clip-path="url(#clip2)"><g clip-path="url(#clip3)"><path d="M526.146 218.835C548.839 218.835 559.943 216.904 574.428 200.609 592.654 181.055 602.189 154.983 603.396 114.427 604.635 82.3469 595.584 50.7112 577.566 24.1407 564.289 6.39728 542.683 0 517.214 0L235.734 0 235.734 243.217C234.285 268.927 205.437 279.428 150.155 279.428 99.701 278.946 72.4221 270.617 72.4221 229.337L72.4221 143.034 0 143.034 0 239.596C-2.57108 266.066 6.20187 292.385 24.1407 312.018 48.2814 339.418 94.9936 354.868 154.38 354.868 195.781 354.868 253.356 348.35 285.464 313.225 301.034 296.327 307.552 285.102 307.552 247.321L307.552 76.526 502.126 76.526C516.128 76.526 527.353 84.9752 527.353 111.771 527.353 147.017 507.196 147.017 502.368 147.017L359.455 147.017 508.403 350.04 602.31 350.04 502.73 218.353ZM134.826 451.069C134.826 468.45 128.549 468.45 124.687 468.45L103.081 468.45C97.287 468.45 95.3557 467.243 94.3901 466.157 90.675 458.69 89.2874 450.28 90.4069 442.016L78.3365 442.016C76.7804 453.543 79.4378 465.244 85.8201 474.968 90.4271 479.486 96.771 481.777 103.201 481.245L124.807 481.245C130.616 481.449 136.237 479.166 140.257 474.968 145.399 468.015 147.882 459.452 147.258 450.827L147.258 394.7 135.188 394.7ZM234.889 419.203C235.382 412.573 233.405 405.994 229.337 400.735 224.762 396.344 218.513 394.144 212.197 394.7L161.38 394.7 161.38 481.969 173.451 481.969 173.451 446.603 209.662 446.603C213.87 446.33 218.066 447.295 221.732 449.379 223.37 451.696 224.14 454.517 223.905 457.345L223.905 481.486 235.975 481.486 235.975 457.345C236.069 451.147 233.878 445.132 229.819 440.447 234.029 434.214 235.83 426.665 234.889 419.203ZM209.3 433.687 173.089 433.687 173.089 408.098 211.955 408.098C214.929 407.709 217.941 408.44 220.404 410.15 221.816 413.292 222.437 416.732 222.215 420.169 222.698 432.48 222.577 433.687 209.3 433.687ZM298.017 393.131 286.912 393.131 286.912 398.321 249.615 398.321 249.615 409.064 286.912 409.064 286.912 413.771 252.029 413.771 252.029 454.811 275.204 454.811C268.433 462.53 259.53 468.074 249.615 470.743L249.615 482.814C264.566 479.562 277.823 470.982 286.912 458.673L286.912 481.727 298.017 481.727 298.017 458.673C307.029 471.007 320.26 479.598 335.193 482.814L335.193 470.743C325.331 468.166 316.462 462.702 309.725 455.052L332.9 455.052 332.9 414.013 298.017 414.013 298.017 409.305 336.159 409.305 336.159 398.321 298.017 398.321ZM286.912 444.671 261.806 444.671 261.806 439.964 286.912 439.964ZM286.912 430.308 261.806 430.308 261.806 425.117 286.912 425.117ZM323.123 444.671 298.017 444.671 298.017 439.964 323.002 439.964ZM323.123 425.117 323.123 430.308 298.017 430.308 298.017 425.117ZM356.679 396.39 350.04 396.39 350.04 481.727 423.669 481.727 423.669 396.39 356.679 396.39ZM413.289 469.657 362.11 469.657 362.11 445.516 413.168 445.516ZM413.289 433.446 362.11 433.446 362.11 409.305 413.168 409.305ZM524.094 417.996 524.094 407.374 487.038 407.374 487.038 393.131 475.934 393.131 475.934 406.891 437.429 406.891 437.429 417.513 464.588 417.513C459.433 433.889 450.068 448.624 437.429 460.242L437.429 474.606C455.271 461.548 468.704 443.357 475.934 422.462L475.934 458.673 461.087 458.673 461.087 469.295 475.934 469.295 475.934 481.365 487.038 481.365 487.038 469.295 502.73 469.295 502.73 458.673 487.038 458.673 487.038 422.462C494.009 443.491 507.284 461.866 525.06 475.089L525.06 460.242C512.368 448.668 502.993 433.918 497.902 417.513Z" fill="#FFFFFF" transform="matrix(1 0 0 1.00166 593 812.193)"/></g></g></g></g></svg>