<?xml version="1.0" encoding="utf-8"?>
<!-- Generator: Adobe Illustrator 25.4.1, SVG Export Plug-In . SVG Version: 6.00 Build 0)  -->
<svg version="1.1" id="レイヤー_1" xmlns="http://www.w3.org/2000/svg" xmlns:xlink="http://www.w3.org/1999/xlink" x="0px"
	 y="0px" viewBox="0 0 25 25" style="enable-background:new 0 0 25 25;" xml:space="preserve">
<style type="text/css">
	.st0{clip-path:url(#SVGID_00000121254467114899829580000004844162601128772762_);}
	.st1{clip-path:url(#SVGID_00000079471385658339466850000003663839343280550333_);}
	.st2{clip-path:url(#SVGID_00000067206352673717851650000005165530608407287187_);fill:#A4DAAA;}
</style>
<g>
	<g>
		<defs>
			<polygon id="SVGID_1_" points="0,25 25,25 25,0 0,0 0,25 			"/>
		</defs>
		<defs>
			<polygon id="SVGID_00000029040512456342557910000001779664521278658969_" points="0,0 25,0 25,25 0,25 0,0 			"/>
		</defs>
		<clipPath id="SVGID_00000167355742398708840950000008498686590703939493_">
			<use xlink:href="#SVGID_1_"  style="overflow:visible;"/>
		</clipPath>
		
			<clipPath id="SVGID_00000014603015404708382940000003595999533195774365_" style="clip-path:url(#SVGID_00000167355742398708840950000008498686590703939493_);">
			<use xlink:href="#SVGID_00000029040512456342557910000001779664521278658969_"  style="overflow:visible;"/>
		</clipPath>
		<g style="clip-path:url(#SVGID_00000014603015404708382940000003595999533195774365_);">
			<defs>
				<polygon id="SVGID_00000091726519985321776190000001421565237856358325_" points="0,25 25,25 25,0 0,0 0,25 				"/>
			</defs>
			<clipPath id="SVGID_00000007389492934902626680000005924095303638568875_">
				<use xlink:href="#SVGID_00000091726519985321776190000001421565237856358325_"  style="overflow:visible;"/>
			</clipPath>
			<polygon style="clip-path:url(#SVGID_00000007389492934902626680000005924095303638568875_);fill:#A4DAAA;" points="10,17.8 
				15.2,17.8 15.2,21.4 10,21.4 10,17.8 			"/>
			<polygon style="clip-path:url(#SVGID_00000007389492934902626680000005924095303638568875_);fill:#A4DAAA;" points="10,3.9 
				15.2,3.9 15.2,7.5 10,7.5 10,3.9 			"/>
			<polygon style="clip-path:url(#SVGID_00000007389492934902626680000005924095303638568875_);fill:#A4DAAA;" points="2.3,17.8 
				7.5,17.8 7.5,21.4 2.3,21.4 2.3,17.8 			"/>
			<polygon style="clip-path:url(#SVGID_00000007389492934902626680000005924095303638568875_);fill:#A4DAAA;" points="17.8,17.8 
				22.9,17.8 22.9,21.4 17.8,21.4 17.8,17.8 			"/>
			<polygon style="clip-path:url(#SVGID_00000007389492934902626680000005924095303638568875_);fill:#A4DAAA;" points="13.1,12.1 
				13.1,8.5 12.1,8.5 12.1,12.1 4.4,12.1 4.4,16.7 5.4,16.7 5.4,13.1 12.1,13.1 12.1,16.7 13.1,16.7 13.1,13.1 19.8,13.1 19.8,16.7 
				20.8,16.7 20.8,12.1 13.1,12.1 			"/>
		</g>
	</g>
</g>
</svg>
