<svg width="96" height="96" xmlns="http://www.w3.org/2000/svg" xmlns:xlink="http://www.w3.org/1999/xlink" overflow="hidden"><defs><clipPath id="clip0"><rect x="74" y="312" width="96" height="96"/></clipPath></defs><g clip-path="url(#clip0)" transform="translate(-74 -312)"><path d="M112 380 132 380 132 394 112 394Z" fill="#A4DAAA"/><path d="M112 326 132 326 132 340 112 340Z" fill="#A4DAAA"/><path d="M82 380 102 380 102 394 82 394Z" fill="#A4DAAA"/><path d="M142 380 162 380 162 394 142 394Z" fill="#A4DAAA"/><path d="M124 358 124 344 120 344 120 358 90 358 90 376 94 376 94 362 120 362 120 376 124 376 124 362 150 362 150 376 154 376 154 358Z" fill="#A4DAAA"/></g></svg>