<svg width="96" height="96" xmlns="http://www.w3.org/2000/svg" xmlns:xlink="http://www.w3.org/1999/xlink" overflow="hidden"><defs><clipPath id="clip0"><rect x="331" y="312" width="96" height="96"/></clipPath></defs><g clip-path="url(#clip0)" transform="translate(-331 -312)"><path d="M409.8 333.39 413.361 329.855C414.136 329.174 414.212 327.994 413.531 327.219 413.493 327.175 413.452 327.133 413.41 327.093L409.91 323.593C409.152 322.817 407.908 322.802 407.131 323.561 407.12 323.571 407.11 323.582 407.099 323.593L403.538 327.128Z" fill="#A4DAAA"/><path d="M397.002 372.5 397.002 369.5 389.502 369.5 389.502 380.5 388.002 380.5 388.002 383.5 407.502 383.5 407.502 348.5 399.061 348.5 396.061 351.5 404.502 351.5 404.502 360.5 389 360.5 389 363.5 404.502 363.5 404.502 369.5 402.002 369.5 402.002 372.5 404.502 372.5 404.502 380.5 392.502 380.5 392.502 372.5 397.002 372.5Z" fill="#A4DAAA"/><path d="M412.561 335 406.561 341 414 341 414 390 355.475 390C355.707 389.354 355.863 388.682 355.941 388L356 387 356 341 385.48 341 391.469 335 356 335 356 334C356 329.029 351.971 325 347 325 342.029 325 338 329.029 338 334L338 387 338.059 388C338.557 392.382 342.154 395.759 346.559 395.978L346.559 396 420 396 420 335ZM347 390C345.343 390 344 388.657 344 387 344 385.343 345.343 384 347 384 348.657 384 350 385.343 350 387 350 388.657 348.657 390 347 390ZM350 378.525C348.061 377.825 345.939 377.825 344 378.525L344 334C344 332.343 345.343 331 347 331 348.657 331 350 332.343 350 334Z" fill="#A4DAAA"/><path d="M375.001 351.5 377.995 348.5 362.5 348.5 362.5 383.5 382.002 383.5 382.002 380.5 380.502 380.5 380.502 369.5 373.002 369.5 373.002 372.5 377.502 372.5 377.502 380.5 365.5 380.5 365.5 372.5 368.002 372.5 368.002 369.5 365.5 369.5 365.5 363.5 371.011 363.5 372.006 360.5 365.5 360.5 365.5 351.5 375.001 351.5Z" fill="#A4DAAA"/><path d="M402.14 328.554 377.609 353.133 374.5 362.5 383.92 359.393 408.45 334.862ZM382.886 357.67 378.694 359.052 377.955 358.312 379.335 354.12C380.337 353.172 381.911 353.194 382.886 354.169 383.853 355.108 383.875 356.652 382.937 357.619 382.92 357.637 382.903 357.653 382.886 357.67Z" fill="#A4DAAA"/></g></svg>