<?xml version="1.0" encoding="utf-8"?>
<!-- Generator: Adobe Illustrator 25.4.1, SVG Export Plug-In . SVG Version: 6.00 Build 0)  -->
<svg version="1.1" id="レイヤー_1" xmlns="http://www.w3.org/2000/svg" xmlns:xlink="http://www.w3.org/1999/xlink" x="0px"
	 y="0px" viewBox="0 0 25 25" style="enable-background:new 0 0 25 25;" xml:space="preserve">
<style type="text/css">
	.st0{clip-path:url(#SVGID_00000097473416010991117780000005877324047776856253_);}
	.st1{clip-path:url(#SVGID_00000103228916563085750190000011556959404208443520_);}
	.st2{clip-path:url(#SVGID_00000068637656543337778530000003295801101827902341_);fill:#A4DAAA;}
</style>
<g>
	<g>
		<defs>
			<polygon id="SVGID_1_" points="0,25 25,25 25,0 0,0 0,25 			"/>
		</defs>
		<defs>
			<polygon id="SVGID_00000065772743246824820480000002831783899148211104_" points="0,0 25,0 25,25 0,25 0,0 			"/>
		</defs>
		<clipPath id="SVGID_00000071560216880084329620000003558229629912711084_">
			<use xlink:href="#SVGID_1_"  style="overflow:visible;"/>
		</clipPath>
		
			<clipPath id="SVGID_00000183218264575538630120000003039973299414505138_" style="clip-path:url(#SVGID_00000071560216880084329620000003558229629912711084_);">
			<use xlink:href="#SVGID_00000065772743246824820480000002831783899148211104_"  style="overflow:visible;"/>
		</clipPath>
		<g style="clip-path:url(#SVGID_00000183218264575538630120000003039973299414505138_);">
			<defs>
				<polygon id="SVGID_00000167358150745681077160000004604797222682164152_" points="0,25 25,25 25,0 0,0 0,25 				"/>
			</defs>
			<clipPath id="SVGID_00000010276974001705468300000003208076603924783792_">
				<use xlink:href="#SVGID_00000167358150745681077160000004604797222682164152_"  style="overflow:visible;"/>
			</clipPath>
			<path style="clip-path:url(#SVGID_00000010276974001705468300000003208076603924783792_);fill:#A4DAAA;" d="M20.5,5.8l0.9-0.9
				c0.2-0.2,0.2-0.5,0-0.7c0,0,0,0,0,0l-0.9-0.9C20.4,3,20,3,19.8,3.2c0,0,0,0,0,0l-0.9,0.9L20.5,5.8L20.5,5.8z"/>
			<polygon style="clip-path:url(#SVGID_00000010276974001705468300000003208076603924783792_);fill:#A4DAAA;" points="17.2,15.8 
				17.2,15.1 15.3,15.1 15.3,17.9 14.9,17.9 14.9,18.7 19.9,18.7 19.9,9.7 17.8,9.7 17,10.4 19.2,10.4 19.2,12.7 15.2,12.7 
				15.2,13.5 19.2,13.5 19.2,15.1 18.5,15.1 18.5,15.8 19.2,15.8 19.2,17.9 16.1,17.9 16.1,15.8 17.2,15.8 17.2,15.8 			"/>
			<path style="clip-path:url(#SVGID_00000010276974001705468300000003208076603924783792_);fill:#A4DAAA;" d="M21.2,6.2l-1.5,1.5
				h1.9v12.6H6.6c0.1-0.2,0.1-0.3,0.1-0.5l0-0.3V7.7h7.6l1.5-1.5H6.7V5.9c0-1.3-1-2.3-2.3-2.3s-2.3,1-2.3,2.3v13.6l0,0.3
				c0.1,1.1,1.1,2,2.2,2.1v0h18.9V6.2H21.2L21.2,6.2z M4.4,20.3c-0.4,0-0.8-0.3-0.8-0.8c0-0.4,0.3-0.8,0.8-0.8
				c0.4,0,0.8,0.3,0.8,0.8C5.1,20,4.8,20.3,4.4,20.3L4.4,20.3z M5.1,17.4c-0.5-0.2-1-0.2-1.5,0V5.9c0-0.4,0.3-0.8,0.8-0.8
				c0.4,0,0.8,0.3,0.8,0.8V17.4z"/>
			<polygon style="clip-path:url(#SVGID_00000010276974001705468300000003208076603924783792_);fill:#A4DAAA;" points="11.6,10.4 
				12.4,9.7 8.4,9.7 8.4,18.7 13.4,18.7 13.4,17.9 13,17.9 13,15.1 11.1,15.1 11.1,15.8 12.2,15.8 12.2,17.9 9.1,17.9 9.1,15.8 
				9.8,15.8 9.8,15.1 9.1,15.1 9.1,13.5 10.6,13.5 10.8,12.7 9.1,12.7 9.1,10.4 11.6,10.4 11.6,10.4 			"/>
			<path style="clip-path:url(#SVGID_00000010276974001705468300000003208076603924783792_);fill:#A4DAAA;" d="M18.6,4.5l-6.3,6.3
				l-0.8,2.4l2.4-0.8l6.3-6.3L18.6,4.5L18.6,4.5z M13.6,12l-1.1,0.4l-0.2-0.2l0.4-1.1c0.3-0.2,0.7-0.2,0.9,0
				C13.9,11.4,13.9,11.7,13.6,12C13.6,12,13.6,12,13.6,12L13.6,12z"/>
		</g>
	</g>
</g>
</svg>
