<?xml version="1.0" encoding="utf-8"?>
<!-- Generator: Adobe Illustrator 25.4.1, SVG Export Plug-In . SVG Version: 6.00 Build 0)  -->
<svg version="1.1" id="レイヤー_1" xmlns="http://www.w3.org/2000/svg" xmlns:xlink="http://www.w3.org/1999/xlink" x="0px"
	 y="0px" viewBox="0 0 25 25" style="enable-background:new 0 0 25 25;" xml:space="preserve">
<style type="text/css">
	.st0{clip-path:url(#SVGID_00000073719397971782588130000000893205486005936802_);}
	.st1{clip-path:url(#SVGID_00000134234884905898091240000003971529905023994793_);}
	.st2{clip-path:url(#SVGID_00000057863303209406467980000008801057236169503414_);fill:#A4DAAA;}
</style>
<g>
	<g>
		<defs>
			<polygon id="SVGID_1_" points="0,25 25,25 25,0 0,0 0,25 			"/>
		</defs>
		<defs>
			<polygon id="SVGID_00000051363745269190445760000015812297961666192297_" points="0,0 25,0 25,25 0,25 0,0 			"/>
		</defs>
		<clipPath id="SVGID_00000096020263150158963610000016979286840645379466_">
			<use xlink:href="#SVGID_1_"  style="overflow:visible;"/>
		</clipPath>
		
			<clipPath id="SVGID_00000127728058137782133220000018445355878448077707_" style="clip-path:url(#SVGID_00000096020263150158963610000016979286840645379466_);">
			<use xlink:href="#SVGID_00000051363745269190445760000015812297961666192297_"  style="overflow:visible;"/>
		</clipPath>
		<g style="clip-path:url(#SVGID_00000127728058137782133220000018445355878448077707_);">
			<defs>
				<polygon id="SVGID_00000062874440156768411860000012795356779419401620_" points="0,25 25,25 25,0 0,0 0,25 				"/>
			</defs>
			<clipPath id="SVGID_00000045580205891880617090000013586581751778749875_">
				<use xlink:href="#SVGID_00000062874440156768411860000012795356779419401620_"  style="overflow:visible;"/>
			</clipPath>
			<path style="clip-path:url(#SVGID_00000045580205891880617090000013586581751778749875_);fill:#A4DAAA;" d="M20.1,14.8
				c0,1.1-0.9,2-2,2s-2-0.9-2-2s0.9-2,2-2S20.1,13.7,20.1,14.8L20.1,14.8z"/>
			<path style="clip-path:url(#SVGID_00000045580205891880617090000013586581751778749875_);fill:#A4DAAA;" d="M9.4,14.8
				c0,1.1-0.9,2-2,2s-2-0.9-2-2s0.9-2,2-2S9.4,13.7,9.4,14.8L9.4,14.8z"/>
			<path style="clip-path:url(#SVGID_00000045580205891880617090000013586581751778749875_);fill:#A4DAAA;" d="M21.7,18.5
				c-0.6-0.4-1.2-0.8-2-0.9c-0.5-0.2-1.1-0.2-1.6-0.3c-0.6,0-1.1,0.1-1.6,0.3c-0.5,0.1-1,0.4-1.5,0.6l-0.1,0.1
				c0.7,0.2,1.4,0.6,2.1,1c0.5,0.4,0.8,0.9,0.8,1.5v0.5h4.4v-2C22.1,19,21.9,18.7,21.7,18.5L21.7,18.5z"/>
			<path style="clip-path:url(#SVGID_00000045580205891880617090000013586581751778749875_);fill:#A4DAAA;" d="M7.8,20.9
				c0-0.6,0.3-1.1,0.7-1.5l0,0l0,0c0.6-0.4,1.3-0.8,2-1c-0.1-0.1-0.1-0.1-0.1-0.2c-0.5-0.3-0.9-0.5-1.5-0.6
				c-0.5-0.2-1.1-0.2-1.6-0.3c-0.6,0-1.1,0.1-1.6,0.3c-0.7,0.2-1.4,0.5-2,0.9c-0.2,0.2-0.4,0.5-0.4,0.8v2h4.4V20.9L7.8,20.9z"/>
			<path style="clip-path:url(#SVGID_00000045580205891880617090000013586581751778749875_);fill:#A4DAAA;" d="M8.7,22.9v-2
				c0-0.3,0.1-0.6,0.4-0.8c0.6-0.4,1.3-0.7,2-0.9c0.5-0.2,1.1-0.3,1.6-0.3c0.6,0,1.1,0.1,1.6,0.3c0.7,0.2,1.4,0.5,2,0.9
				c0.3,0.2,0.4,0.5,0.4,0.8v2H8.7L8.7,22.9z"/>
			<path style="clip-path:url(#SVGID_00000045580205891880617090000013586581751778749875_);fill:#A4DAAA;" d="M14.7,16.4
				c0,1.1-0.9,2-2,2s-2-0.9-2-2c0-1.1,0.9-2,2-2S14.7,15.3,14.7,16.4L14.7,16.4z"/>
			<path style="clip-path:url(#SVGID_00000045580205891880617090000013586581751778749875_);fill:#A4DAAA;" d="M21.1,2.3H4.4
				c-0.6,0-1,0.5-1,1V9c0,0.6,0.5,1,1,1h3.8v1.5L9.9,10h1.7l1,1.5l0.9-1.5h1.8l1.6,1.5V10h4.1c0.6,0,1-0.5,1-1V3.3
				C22.1,2.8,21.7,2.3,21.1,2.3L21.1,2.3z M6,4.6h12v0.5H6V4.6L6,4.6z M15.4,7.7H6V7.2h9.5V7.7L15.4,7.7z M19.6,6.4H6V5.9h13.6V6.4
				L19.6,6.4z"/>
		</g>
	</g>
</g>
</svg>
