<svg width="503" height="295" xmlns="http://www.w3.org/2000/svg" xmlns:xlink="http://www.w3.org/1999/xlink" overflow="hidden"><defs><clipPath id="clip0"><rect x="2827" y="1108" width="503" height="295"/></clipPath><clipPath id="clip1"><rect x="3034" y="1107" width="296" height="296"/></clipPath><clipPath id="clip2"><rect x="3034" y="1107" width="296" height="296"/></clipPath><clipPath id="clip3"><rect x="3034" y="1107" width="296" height="296"/></clipPath><clipPath id="clip4"><rect x="2827" y="1107" width="295" height="296"/></clipPath><clipPath id="clip5"><rect x="2827" y="1107" width="295" height="296"/></clipPath><clipPath id="clip6"><rect x="2827" y="1107" width="295" height="296"/></clipPath></defs><g clip-path="url(#clip0)" transform="translate(-2827 -1108)"><g clip-path="url(#clip1)"><g clip-path="url(#clip2)"><g clip-path="url(#clip3)"><path d="M3130.83 1265.73C3118.18 1269.99 3106.33 1276.33 3095.75 1284.47 3088.57 1290.08 3084.32 1298.63 3084.17 1307.74L3084.17 1361.73 3086.9 1363.56C3093.29 1367.81 3104.32 1371.16 3117.97 1373.6L3117.97 1353.83 3176.35 1353.83 3176.35 1378.56C3178.68 1378.6 3181.02 1378.61 3183.35 1378.62 3185.12 1378.62 3186.88 1378.59 3188.65 1378.58L3188.65 1353.83 3247.03 1353.83 3247.03 1373.83C3261.2 1371.32 3272.4 1367.83 3278.38 1363.36L3280.83 1361.52 3280.83 1307.61C3280.67 1298.59 3276.46 1290.12 3269.36 1284.55 3258.8 1276.39 3246.95 1270.05 3234.31 1265.77L3215.15 1258.09C3213.99 1257.62 3213.23 1256.5 3213.23 1255.25L3213.23 1247.73C3224.88 1238.42 3231.66 1224.32 3231.67 1209.41L3231.67 1187.9 3234.74 1187.9C3238.13 1187.9 3240.89 1185.14 3240.89 1181.75 3240.89 1178.36 3238.13 1175.6 3234.74 1175.6L3231.67 1175.6C3230.6 1158.63 3220.83 1143.42 3205.85 1135.38L3200.94 1154.83C3200.59 1156.24 3199.31 1157.21 3197.86 1157.17L3197.13 1157.17C3195.47 1156.82 3194.4 1155.19 3194.75 1153.53 3194.75 1153.53 3194.75 1153.53 3194.75 1153.53 3194.75 1153.47 3194.78 1153.41 3194.79 1153.36L3200.63 1130.34C3199.61 1126.26 3195.95 1123.39 3191.74 1123.36L3173.3 1123.36C3169.08 1123.38 3165.41 1126.25 3164.39 1130.34L3170.23 1153.36C3170.67 1154.99 3169.71 1156.68 3168.08 1157.13L3167.89 1157.17 3167.15 1157.17C3165.71 1157.21 3164.43 1156.24 3164.08 1154.83L3159.32 1135.38C3144.34 1143.42 3134.58 1158.63 3133.51 1175.6L3130.28 1175.6C3126.88 1175.6 3124.13 1178.36 3124.13 1181.75 3124.13 1185.14 3126.88 1187.9 3130.28 1187.9L3133.35 1187.9 3133.35 1209.41C3133.36 1224.31 3140.13 1238.4 3151.77 1247.71L3151.77 1255.25C3151.77 1256.5 3151.03 1257.62 3149.88 1258.09ZM3145.62 1209.41 3145.62 1187.9 3219.38 1187.9 3219.38 1209.41C3219.38 1229.77 3202.87 1246.28 3182.5 1246.28 3162.13 1246.28 3145.62 1229.77 3145.62 1209.41ZM3176.35 1341.54 3118.95 1341.54 3128.59 1280.01 3154.51 1269.47C3154.7 1269.39 3154.86 1269.29 3155.04 1269.21L3176.37 1320.03ZM3182.5 1270.86C3174.24 1270.95 3166.02 1269.76 3158.11 1267.36 3161.86 1264.46 3164.06 1259.99 3164.06 1255.25L3164.06 1254.95C3175.89 1259.78 3189.13 1259.78 3200.95 1254.95L3200.95 1255.25C3200.95 1260.01 3203.17 1264.5 3206.95 1267.4 3199.02 1269.78 3190.78 1270.95 3182.5 1270.86ZM3188.65 1341.54 3188.65 1320.03 3209.97 1269.22C3210.15 1269.3 3210.31 1269.41 3210.5 1269.49L3236.62 1279.94 3246.11 1341.54Z" fill="#A4DAAA"/></g></g></g><g clip-path="url(#clip4)"><g clip-path="url(#clip5)"><g clip-path="url(#clip6)"><path d="M3069.76 1307.62C3069.42 1298.68 3065.29 1290.32 3058.39 1284.62 3048.76 1276.45 3035.55 1269.41 3017.12 1262.57 3023.59 1261.87 3029.94 1260.28 3036 1257.87 3036 1257.87 3029.05 1253.71 3024.74 1236.7 3022.01 1226.01 3032.46 1199.28 3032.55 1180.46 3032.55 1165.41 3028.27 1158.67 3020.2 1154.09 3015.53 1151.45 3004.78 1153.88 3004.78 1153.88 3004.78 1153.88 2999.23 1143.36 2980.65 1137.57 2965.37 1133.41 2949.06 1135.49 2935.32 1143.36 2923.83 1150.78 2918.27 1158.95 2918 1187.04 2917.77 1212.79 2921.3 1235.66 2919.67 1246.44 2918.92 1252.41 2916.65 1258.08 2913.08 1262.92 2918.73 1263.39 2924.41 1263.52 2930.07 1263.29 2912.62 1269.91 2899.96 1276.73 2890.66 1284.62 2883.73 1290.34 2879.58 1298.76 2879.27 1307.74L2879.3 1361.73 2882.03 1363.56C2898.93 1374.82 2941.44 1377.49 2958.93 1378.12L2966.82 1378.42 2946.67 1285.31C2955.7 1288.05 2965.09 1289.4 2974.53 1289.3 2983.96 1289.4 2993.35 1288.05 3002.37 1285.31L2982.2 1378.45 2990.06 1378.2C3008.09 1377.65 3051.69 1375.1 3067.34 1363.37L3069.79 1361.52ZM2937.65 1209.41 2937.65 1193.86C2939.15 1193.77 2940.64 1193.59 2942.12 1193.32 2952.43 1191.96 2962.49 1189.13 2972 1184.92 2982.68 1179.55 2988.81 1176.91 2997.67 1168.88 2998.84 1167.73 3000.73 1167.75 3001.88 1168.92 3002.31 1169.36 3002.6 1169.93 3002.69 1170.55 3003.4 1175.43 3005.24 1186.18 3007.68 1190.47 3008.78 1192.58 3010.03 1194.61 3011.41 1196.55L3011.41 1209.41C3011.38 1229.76 2994.89 1246.26 2974.53 1246.28L2974.53 1246.28C2954.17 1246.26 2937.67 1229.76 2937.65 1209.41ZM2974.53 1277.01C2963.98 1277.32 2953.51 1275.24 2943.87 1270.95L2946.54 1269.85C2952.31 1267.5 2956.08 1261.88 2956.06 1255.64L2956.06 1254.95C2967.89 1259.78 2981.13 1259.78 2992.96 1254.95L2992.96 1255.64C2992.94 1261.87 2996.71 1267.49 3002.48 1269.85L3005.16 1270.95C2995.53 1275.24 2985.06 1277.31 2974.53 1277.01Z" fill="#A4DAAA"/></g></g></g></g></svg>