<?xml version="1.0" encoding="utf-8"?>
<!-- Generator: Adobe Illustrator 25.4.1, SVG Export Plug-In . SVG Version: 6.00 Build 0)  -->
<svg version="1.1" id="レイヤー_1" xmlns="http://www.w3.org/2000/svg" xmlns:xlink="http://www.w3.org/1999/xlink" x="0px"
	 y="0px" viewBox="0 0 42.6 25" style="enable-background:new 0 0 42.6 25;" xml:space="preserve">
<style type="text/css">
	.st0{clip-path:url(#SVGID_00000156570059489398457880000009390576319967122601_);}
	.st1{clip-path:url(#SVGID_00000021809888808619800540000006914632648550800539_);}
	.st2{clip-path:url(#SVGID_00000124875567300902434950000017127354381705601710_);fill:#A4DAAA;}
	.st3{clip-path:url(#SVGID_00000098190514844207908570000014394827455601259198_);}
	.st4{clip-path:url(#SVGID_00000101822048347120489380000006196122022219020971_);}
	.st5{clip-path:url(#SVGID_00000084512920406847614040000011816430657661312651_);}
	.st6{clip-path:url(#SVGID_00000154403951739992470760000000984808651198786435_);fill:#A4DAAA;}
</style>
<g>
	<g>
		<defs>
			<polygon id="SVGID_1_" points="0,25 42.6,25 42.6,0 0,0 0,25 			"/>
		</defs>
		<defs>
			<polygon id="SVGID_00000104687479660933651610000009021074712917588411_" points="17.6,0 42.6,0 42.6,25 17.6,25 17.6,0 			"/>
		</defs>
		<clipPath id="SVGID_00000064316895975334234830000002824978123287066534_">
			<use xlink:href="#SVGID_1_"  style="overflow:visible;"/>
		</clipPath>
		
			<clipPath id="SVGID_00000052808737528979367640000005737133324252074136_" style="clip-path:url(#SVGID_00000064316895975334234830000002824978123287066534_);">
			<use xlink:href="#SVGID_00000104687479660933651610000009021074712917588411_"  style="overflow:visible;"/>
		</clipPath>
		<g style="clip-path:url(#SVGID_00000052808737528979367640000005737133324252074136_);">
			<defs>
				<polygon id="SVGID_00000036210754063418473210000005815247276530052770_" points="17.6,25 42.6,25 42.6,0 17.6,0 17.6,25 				
					"/>
			</defs>
			<clipPath id="SVGID_00000152232083810859643120000007731116077726729121_">
				<use xlink:href="#SVGID_00000036210754063418473210000005815247276530052770_"  style="overflow:visible;"/>
			</clipPath>
			<path style="clip-path:url(#SVGID_00000152232083810859643120000007731116077726729121_);fill:#A4DAAA;" d="M25.9,13.5
				c-1.1,0.4-2.1,0.9-2.9,1.6c-0.6,0.5-1,1.2-1,1.9v4.5l0.2,0.2c0.5,0.4,1.5,0.6,2.6,0.8v-1.7h4.9v2.1c0.2,0,0.4,0,0.6,0
				c0.1,0,0.3,0,0.4,0v-2.1h4.9v1.7c1.2-0.2,2.1-0.5,2.6-0.9l0.2-0.2V17c0-0.8-0.4-1.5-1-1.9c-0.9-0.7-1.9-1.2-2.9-1.6L33,12.8
				c-0.1,0-0.2-0.1-0.2-0.2V12c1-0.8,1.5-2,1.5-3.2V6.9h0.3c0.3,0,0.5-0.2,0.5-0.5c0-0.3-0.2-0.5-0.5-0.5h-0.3
				c-0.1-1.4-0.9-2.7-2.2-3.4l-0.4,1.6c0,0.1-0.1,0.2-0.3,0.2h-0.1c-0.1,0-0.2-0.2-0.2-0.3c0,0,0,0,0,0c0,0,0,0,0,0l0.5-1.9
				c-0.1-0.3-0.4-0.6-0.7-0.6h-1.5c-0.4,0-0.7,0.2-0.7,0.6l0.5,1.9c0,0.1,0,0.3-0.2,0.3l0,0H29c-0.1,0-0.2-0.1-0.3-0.2l-0.4-1.6
				c-1.3,0.7-2.1,1.9-2.2,3.4h-0.3c-0.3,0-0.5,0.2-0.5,0.5c0,0.3,0.2,0.5,0.5,0.5h0.3v1.8c0,1.2,0.6,2.4,1.5,3.2v0.6
				c0,0.1-0.1,0.2-0.2,0.2L25.9,13.5z M27.2,8.7V6.9h6.2v1.8c0,1.7-1.4,3.1-3.1,3.1C28.5,11.8,27.2,10.5,27.2,8.7L27.2,8.7z
				 M29.7,19.8h-4.8l0.8-5.2l2.2-0.9c0,0,0,0,0,0l1.8,4.3L29.7,19.8L29.7,19.8z M30.2,13.9c-0.7,0-1.4-0.1-2-0.3
				c0.3-0.2,0.5-0.6,0.5-1v0c1,0.4,2.1,0.4,3.1,0v0c0,0.4,0.2,0.8,0.5,1C31.6,13.8,30.9,13.9,30.2,13.9L30.2,13.9z M30.8,19.8V18
				l1.8-4.3c0,0,0,0,0,0l2.2,0.9l0.8,5.2H30.8L30.8,19.8z"/>
		</g>
	</g>
	<g>
		<defs>
			<polygon id="SVGID_00000168107515477395082320000018013426741628616111_" points="0,25 42.6,25 42.6,0 0,0 0,25 			"/>
		</defs>
		<clipPath id="SVGID_00000089546136416414797740000015891584626648877496_">
			<use xlink:href="#SVGID_00000168107515477395082320000018013426741628616111_"  style="overflow:visible;"/>
		</clipPath>
		<g style="clip-path:url(#SVGID_00000089546136416414797740000015891584626648877496_);">
			<defs>
				<polygon id="SVGID_00000132794071820921843760000000116558076907843482_" points="0,25 42.6,25 42.6,0 0,0 0,25 				"/>
			</defs>
			<defs>
				<polygon id="SVGID_00000080203546825972918780000004612765097008021693_" points="0,0 25,0 25,25 0,25 0,0 				"/>
			</defs>
			<clipPath id="SVGID_00000086683425326402569210000008482972855645205404_">
				<use xlink:href="#SVGID_00000132794071820921843760000000116558076907843482_"  style="overflow:visible;"/>
			</clipPath>
			
				<clipPath id="SVGID_00000009571567094269053630000008882463706533377923_" style="clip-path:url(#SVGID_00000086683425326402569210000008482972855645205404_);">
				<use xlink:href="#SVGID_00000080203546825972918780000004612765097008021693_"  style="overflow:visible;"/>
			</clipPath>
			<g style="clip-path:url(#SVGID_00000009571567094269053630000008882463706533377923_);">
				<defs>
					<polygon id="SVGID_00000029008266422229616950000001739099919712748188_" points="0,25 25,25 25,0 0,0 0,25 					"/>
				</defs>
				<clipPath id="SVGID_00000019639533644407444650000011427968181024896405_">
					<use xlink:href="#SVGID_00000029008266422229616950000001739099919712748188_"  style="overflow:visible;"/>
				</clipPath>
				<path style="clip-path:url(#SVGID_00000019639533644407444650000011427968181024896405_);fill:#A4DAAA;" d="M20.6,17
					c0-0.7-0.4-1.4-1-1.9c-0.8-0.7-1.9-1.3-3.5-1.8c0.5-0.1,1.1-0.2,1.6-0.4c0,0-0.6-0.3-0.9-1.8c-0.2-0.9,0.6-3.1,0.7-4.7
					c0-1.3-0.4-1.8-1-2.2c-0.4-0.2-1.3,0-1.3,0s-0.5-0.9-2-1.4c-1.3-0.3-2.6-0.2-3.8,0.5c-1,0.6-1.4,1.3-1.5,3.7
					c0,2.2,0.3,4.1,0.1,5c-0.1,0.5-0.3,1-0.6,1.4c0.5,0,0.9,0,1.4,0c-1.5,0.6-2.5,1.1-3.3,1.8c-0.6,0.5-0.9,1.2-1,1.9l0,4.5l0.2,0.2
					c1.4,0.9,5,1.2,6.4,1.2l0.7,0l-1.7-7.8c0.8,0.2,1.5,0.3,2.3,0.3c0.8,0,1.6-0.1,2.3-0.3l-1.7,7.8l0.7,0c1.5,0,5.2-0.3,6.5-1.2
					l0.2-0.2L20.6,17L20.6,17z M9.5,8.7V7.4c0.1,0,0.3,0,0.4,0c0.9-0.1,1.7-0.4,2.5-0.7c0.9-0.4,1.4-0.7,2.2-1.3
					c0.1-0.1,0.3-0.1,0.4,0c0,0,0.1,0.1,0.1,0.1c0.1,0.4,0.2,1.3,0.4,1.7c0.1,0.2,0.2,0.3,0.3,0.5v1.1c0,1.7-1.4,3.1-3.1,3.1l0,0
					C10.9,11.8,9.5,10.5,9.5,8.7L9.5,8.7z M12.6,14.4c-0.9,0-1.8-0.1-2.6-0.5l0.2-0.1c0.5-0.2,0.8-0.7,0.8-1.2v-0.1
					c1,0.4,2.1,0.4,3.1,0v0.1c0,0.5,0.3,1,0.8,1.2l0.2,0.1C14.4,14.3,13.5,14.4,12.6,14.4L12.6,14.4z"/>
			</g>
		</g>
	</g>
</g>
</svg>
