<?xml version="1.0" encoding="utf-8"?>
<!-- Generator: Adobe Illustrator 25.4.1, SVG Export Plug-In . SVG Version: 6.00 Build 0)  -->
<svg version="1.1" id="Layer_1" xmlns="http://www.w3.org/2000/svg" xmlns:xlink="http://www.w3.org/1999/xlink" x="0px" y="0px"
	 viewBox="0 0 20 20" style="enable-background:new 0 0 20 20;" xml:space="preserve">
<style type="text/css">
	.st0{clip-path:url(#SVGID_00000071542952877898761030000002521411453137001126_);fill:#FFFFFF;}
</style>
<g>
	<defs>
		<rect id="SVGID_1_" width="20" height="20"/>
	</defs>
	<clipPath id="SVGID_00000123424803939224760950000000321734042984423827_">
		<use xlink:href="#SVGID_1_"  style="overflow:visible;"/>
	</clipPath>
	<path style="clip-path:url(#SVGID_00000123424803939224760950000000321734042984423827_);fill:#FFFFFF;" d="M19.6,5.2
		c-0.2-0.9-0.9-1.5-1.8-1.8C16.3,3,10,3,10,3S3.8,3,2.2,3.4C1.3,3.6,0.7,4.3,0.4,5.2c-0.6,3.2-0.6,6.5,0,9.7
		c0.2,0.9,0.9,1.5,1.8,1.8C3.8,17,10,17,10,17s6.2,0,7.8-0.4c0.9-0.2,1.5-0.9,1.8-1.8C20.1,11.6,20.1,8.4,19.6,5.2z M7.9,13V7l5.2,3
		L7.9,13z"/>
</g>
</svg>
