<svg width="20px" height="20px" xmlns="http://www.w3.org/2000/svg" xmlns:xlink="http://www.w3.org/1999/xlink" overflow="hidden"><defs><clipPath id="clip0"><rect x="240" y="466" width="129" height="128"/></clipPath></defs><g clip-path="url(#clip0)" transform="translate(-240 -466)"><path d="M65.1 112.25C50.825 111.8 37.25 111.45 23.675 110.925 20.75 110.8 17.775 110.35 14.925 109.675 9.575 108.425 5.875 105.2 3.975 99.925 2.45 95.675 1.9 91.3 1.5 86.85 0.625 76.4 0.625 65.95 1.05 55.5 1.3 49.6 1.45 43.65 3.025 37.925 3.975 34.5 5.125 31.15 7.9 28.675 10.825 26.05 14.25 24.475 18.15 24.3 28.85 23.775 39.525 23.125 50.225 23.025 64.625 22.875 79.05 23.075 93.45 23.35 99.675 23.475 105.95 23.8 112.125 24.6 117.775 25.35 122 28.5 124.25 34 125.975 38.225 126.625 42.65 127 47.15 127.975 58.425 128 69.7 127.45 80.975 127.175 86.7 126.9 92.45 125.275 98.025 123.425 104.425 119.5 108.65 112.95 110.1 110.4 110.65 107.75 110.85 105.15 110.95 91.55 111.425 77.975 111.85 65.1 112.25ZM51.275 83.825C62.675 77.925 73.95 72.075 85.45 66.1 73.975 60.1 62.7 54.225 51.275 48.25 51.275 60.175 51.275 71.9 51.275 83.825Z" fill="#FFF" transform="matrix(1.00781 0 0 1 240 466)"/></g></svg>