<svg id="Layer_1" data-name="Layer 1" xmlns="http://www.w3.org/2000/svg" viewBox="0 0 20 20"><defs><style>.cls-1{fill:#fff;}.cls-2{fill:none;}</style></defs><path class="cls-1" d="M109.08,106.15a2.51,2.51,0,0,0-1.77-1.77c-1.56-.43-7.81-.43-7.81-.43s-6.25,0-7.81.43a2.51,2.51,0,0,0-1.77,1.77,28.21,28.21,0,0,0,0,9.7,2.51,2.51,0,0,0,1.77,1.77c1.56.43,7.81.43,7.81.43s6.25,0,7.81-.43a2.51,2.51,0,0,0,1.77-1.77,28.21,28.21,0,0,0,0-9.7ZM97.45,114V108l5.23,3Z" transform="translate(-89.5 -101)"/><rect class="cls-2" width="20" height="20"/></svg>